<svg width="24" height="24" viewBox="0 0 24 24" fill="none" xmlns="http://www.w3.org/2000/svg">
<path fill-rule="evenodd" clip-rule="evenodd" d="M12.0001 22L10.8339 20.0563L6.17404 12.2899C3.45691 7.76136 6.71893 2 12.0001 2C17.2812 2 20.5433 7.76135 17.8261 12.2899L13.1663 20.0563L12.0001 22ZM16.1112 11.2609L12.0001 18.1127L7.88903 11.2609C5.97172 8.06542 8.27352 4 12.0001 4C15.7267 4 18.0285 8.06541 16.1112 11.2609ZM12.0001 11C13.1047 11 14.0001 10.1046 14.0001 9C14.0001 7.89543 13.1047 7 12.0001 7C10.8955 7 10.0001 7.89543 10.0001 9C10.0001 10.1046 10.8955 11 12.0001 11Z" fill="#333333"/>
</svg>
